<?xml version="1.0" encoding="UTF-8" standalone="no"?>
<!DOCTYPE svg PUBLIC "-//W3C//DTD SVG 1.1//EN"
 "http://www.w3.org/Graphics/SVG/1.1/DTD/svg11.dtd">
<!-- Generated by graphviz version 8.0.3 (0)
 -->
<!-- Title: Tree Pages: 1 -->
<svg width="476pt" height="218pt"
 viewBox="0.00 0.00 685.00 314.00" xmlns="http://www.w3.org/2000/svg" xmlns:xlink="http://www.w3.org/1999/xlink">
<g id="graph0" class="graph" transform="scale(0.694444 0.694444) rotate(0) translate(4 310)">
<title>Tree</title>
<polygon fill="white" stroke="none" points="-4,4 -4,-310 681,-310 681,4 -4,4"/>
<!-- 0 -->
<g id="node1" class="node">
<title>0</title>
<path fill="#fbeadf" stroke="black" d="M407.5,-306C407.5,-306 261.5,-306 261.5,-306 255.5,-306 249.5,-300 249.5,-294 249.5,-294 249.5,-235 249.5,-235 249.5,-229 255.5,-223 261.5,-223 261.5,-223 407.5,-223 407.5,-223 413.5,-223 419.5,-229 419.5,-235 419.5,-235 419.5,-294 419.5,-294 419.5,-300 413.5,-306 407.5,-306"/>
<text text-anchor="middle" x="334.5" y="-290.8" font-family="Helvetica,sans-Serif" font-size="14.00">n__GHM &lt;= &#45;0.52</text>
<text text-anchor="middle" x="334.5" y="-275.8" font-family="Helvetica,sans-Serif" font-size="14.00">gini = 0.496</text>
<text text-anchor="middle" x="334.5" y="-260.8" font-family="Helvetica,sans-Serif" font-size="14.00">samples = 294826</text>
<text text-anchor="middle" x="334.5" y="-245.8" font-family="Helvetica,sans-Serif" font-size="14.00">value = [160549, 134277]</text>
<text text-anchor="middle" x="334.5" y="-230.8" font-family="Helvetica,sans-Serif" font-size="14.00">class = Anthropogenic</text>
</g>
<!-- 1 -->
<g id="node2" class="node">
<title>1</title>
<path fill="#7cbeee" stroke="black" d="M313.5,-187C313.5,-187 175.5,-187 175.5,-187 169.5,-187 163.5,-181 163.5,-175 163.5,-175 163.5,-116 163.5,-116 163.5,-110 169.5,-104 175.5,-104 175.5,-104 313.5,-104 313.5,-104 319.5,-104 325.5,-110 325.5,-116 325.5,-116 325.5,-175 325.5,-175 325.5,-181 319.5,-187 313.5,-187"/>
<text text-anchor="middle" x="244.5" y="-171.8" font-family="Helvetica,sans-Serif" font-size="14.00">n__pr &lt;= &#45;0.308</text>
<text text-anchor="middle" x="244.5" y="-156.8" font-family="Helvetica,sans-Serif" font-size="14.00">gini = 0.378</text>
<text text-anchor="middle" x="244.5" y="-141.8" font-family="Helvetica,sans-Serif" font-size="14.00">samples = 145376</text>
<text text-anchor="middle" x="244.5" y="-126.8" font-family="Helvetica,sans-Serif" font-size="14.00">value = [36837, 108539]</text>
<text text-anchor="middle" x="244.5" y="-111.8" font-family="Helvetica,sans-Serif" font-size="14.00">class = Natural</text>
</g>
<!-- 0&#45;&gt;1 -->
<g id="edge1" class="edge">
<title>0&#45;&gt;1</title>
<path fill="none" stroke="black" d="M303.02,-222.58C296.34,-213.89 289.22,-204.63 282.32,-195.67"/>
<polygon fill="black" stroke="black" points="284.68,-193.99 275.81,-188.2 279.13,-198.26 284.68,-193.99"/>
<text text-anchor="middle" x="272.57" y="-208.29" font-family="Helvetica,sans-Serif" font-size="14.00">True</text>
</g>
<!-- 4 -->
<g id="node5" class="node">
<title>4</title>
<path fill="#ea9b62" stroke="black" d="M493.5,-187C493.5,-187 355.5,-187 355.5,-187 349.5,-187 343.5,-181 343.5,-175 343.5,-175 343.5,-116 343.5,-116 343.5,-110 349.5,-104 355.5,-104 355.5,-104 493.5,-104 493.5,-104 499.5,-104 505.5,-110 505.5,-116 505.5,-116 505.5,-175 505.5,-175 505.5,-181 499.5,-187 493.5,-187"/>
<text text-anchor="middle" x="424.5" y="-171.8" font-family="Helvetica,sans-Serif" font-size="14.00">n__pr &lt;= &#45;0.308</text>
<text text-anchor="middle" x="424.5" y="-156.8" font-family="Helvetica,sans-Serif" font-size="14.00">gini = 0.285</text>
<text text-anchor="middle" x="424.5" y="-141.8" font-family="Helvetica,sans-Serif" font-size="14.00">samples = 149450</text>
<text text-anchor="middle" x="424.5" y="-126.8" font-family="Helvetica,sans-Serif" font-size="14.00">value = [123712, 25738]</text>
<text text-anchor="middle" x="424.5" y="-111.8" font-family="Helvetica,sans-Serif" font-size="14.00">class = Anthropogenic</text>
</g>
<!-- 0&#45;&gt;4 -->
<g id="edge4" class="edge">
<title>0&#45;&gt;4</title>
<path fill="none" stroke="black" d="M365.98,-222.58C372.66,-213.89 379.78,-204.63 386.68,-195.67"/>
<polygon fill="black" stroke="black" points="389.87,-198.26 393.19,-188.2 384.32,-193.99 389.87,-198.26"/>
<text text-anchor="middle" x="396.43" y="-208.29" font-family="Helvetica,sans-Serif" font-size="14.00">False</text>
</g>
<!-- 2 -->
<g id="node3" class="node">
<title>2</title>
<path fill="#bbddf6" stroke="black" d="M143,-68C143,-68 12,-68 12,-68 6,-68 0,-62 0,-56 0,-56 0,-12 0,-12 0,-6 6,0 12,0 12,0 143,0 143,0 149,0 155,-6 155,-12 155,-12 155,-56 155,-56 155,-62 149,-68 143,-68"/>
<text text-anchor="middle" x="77.5" y="-52.8" font-family="Helvetica,sans-Serif" font-size="14.00">gini = 0.478</text>
<text text-anchor="middle" x="77.5" y="-37.8" font-family="Helvetica,sans-Serif" font-size="14.00">samples = 77420</text>
<text text-anchor="middle" x="77.5" y="-22.8" font-family="Helvetica,sans-Serif" font-size="14.00">value = [30632, 46788]</text>
<text text-anchor="middle" x="77.5" y="-7.8" font-family="Helvetica,sans-Serif" font-size="14.00">class = Natural</text>
</g>
<!-- 1&#45;&gt;2 -->
<g id="edge2" class="edge">
<title>1&#45;&gt;2</title>
<path fill="none" stroke="black" d="M182.32,-103.73C167.65,-94.11 152.04,-83.87 137.47,-74.32"/>
<polygon fill="black" stroke="black" points="139.83,-71.03 129.55,-68.47 136,-76.88 139.83,-71.03"/>
</g>
<!-- 3 -->
<g id="node4" class="node">
<title>3</title>
<path fill="#4da7e8" stroke="black" d="M308,-68C308,-68 185,-68 185,-68 179,-68 173,-62 173,-56 173,-56 173,-12 173,-12 173,-6 179,0 185,0 185,0 308,0 308,0 314,0 320,-6 320,-12 320,-12 320,-56 320,-56 320,-62 314,-68 308,-68"/>
<text text-anchor="middle" x="246.5" y="-52.8" font-family="Helvetica,sans-Serif" font-size="14.00">gini = 0.166</text>
<text text-anchor="middle" x="246.5" y="-37.8" font-family="Helvetica,sans-Serif" font-size="14.00">samples = 67956</text>
<text text-anchor="middle" x="246.5" y="-22.8" font-family="Helvetica,sans-Serif" font-size="14.00">value = [6205, 61751]</text>
<text text-anchor="middle" x="246.5" y="-7.8" font-family="Helvetica,sans-Serif" font-size="14.00">class = Natural</text>
</g>
<!-- 1&#45;&gt;3 -->
<g id="edge3" class="edge">
<title>1&#45;&gt;3</title>
<path fill="none" stroke="black" d="M245.24,-103.73C245.39,-95.7 245.55,-87.24 245.69,-79.11"/>
<polygon fill="black" stroke="black" points="249.21,-79.36 245.89,-69.3 242.21,-79.23 249.21,-79.36"/>
</g>
<!-- 5 -->
<g id="node6" class="node">
<title>5</title>
<path fill="#e78d4b" stroke="black" d="M491.5,-68C491.5,-68 353.5,-68 353.5,-68 347.5,-68 341.5,-62 341.5,-56 341.5,-56 341.5,-12 341.5,-12 341.5,-6 347.5,0 353.5,0 353.5,0 491.5,0 491.5,0 497.5,0 503.5,-6 503.5,-12 503.5,-12 503.5,-56 503.5,-56 503.5,-62 497.5,-68 491.5,-68"/>
<text text-anchor="middle" x="422.5" y="-52.8" font-family="Helvetica,sans-Serif" font-size="14.00">gini = 0.156</text>
<text text-anchor="middle" x="422.5" y="-37.8" font-family="Helvetica,sans-Serif" font-size="14.00">samples = 121253</text>
<text text-anchor="middle" x="422.5" y="-22.8" font-family="Helvetica,sans-Serif" font-size="14.00">value = [110932, 10321]</text>
<text text-anchor="middle" x="422.5" y="-7.8" font-family="Helvetica,sans-Serif" font-size="14.00">class = Anthropogenic</text>
</g>
<!-- 4&#45;&gt;5 -->
<g id="edge5" class="edge">
<title>4&#45;&gt;5</title>
<path fill="none" stroke="black" d="M423.76,-103.73C423.61,-95.7 423.45,-87.24 423.31,-79.11"/>
<polygon fill="black" stroke="black" points="426.79,-79.23 423.11,-69.3 419.79,-79.36 426.79,-79.23"/>
</g>
<!-- 6 -->
<g id="node7" class="node">
<title>6</title>
<path fill="#ddeefb" stroke="black" d="M665,-68C665,-68 534,-68 534,-68 528,-68 522,-62 522,-56 522,-56 522,-12 522,-12 522,-6 528,0 534,0 534,0 665,0 665,0 671,0 677,-6 677,-12 677,-12 677,-56 677,-56 677,-62 671,-68 665,-68"/>
<text text-anchor="middle" x="599.5" y="-52.8" font-family="Helvetica,sans-Serif" font-size="14.00">gini = 0.496</text>
<text text-anchor="middle" x="599.5" y="-37.8" font-family="Helvetica,sans-Serif" font-size="14.00">samples = 28197</text>
<text text-anchor="middle" x="599.5" y="-22.8" font-family="Helvetica,sans-Serif" font-size="14.00">value = [12780, 15417]</text>
<text text-anchor="middle" x="599.5" y="-7.8" font-family="Helvetica,sans-Serif" font-size="14.00">class = Natural</text>
</g>
<!-- 4&#45;&gt;6 -->
<g id="edge6" class="edge">
<title>4&#45;&gt;6</title>
<path fill="none" stroke="black" d="M489.66,-103.73C505.18,-94.02 521.7,-83.68 537.09,-74.05"/>
<polygon fill="black" stroke="black" points="538.38,-76.75 545,-68.47 534.67,-70.81 538.38,-76.75"/>
</g>
</g>
</svg>